<svg xmlns="http://www.w3.org/2000/svg" width="755.407" height="115.995" viewBox="0 0 755.407 115.995">
  <g id="Lock_Science_Right" transform="translate(0 -6.27)">
    <path id="Path_1203" data-name="Path 1203" d="M697.5,0H43.5a43.5,43.5,0,0,0,0,87h654a43.5,43.5,0,0,0,0-87Z" transform="translate(0 35.265)" fill="#746d6d"/>
    <path id="Path_763" data-name="Path 763" d="M685.99,0H33.129a33.129,33.129,0,0,0,0,66.258H685.99A33.129,33.129,0,0,0,685.99,0Z" transform="translate(10.859 45.405)" fill="#d8d7d7"/>
    <g id="Spaceship" transform="matrix(0.914, 0.407, -0.407, 0.914, 684.989, 0)">
      <path id="Path_636" data-name="Path 636" d="M0,0H81.943S62.481,18.061,42.7,18.061,0,0,0,0Z" transform="translate(3.434 42.119)" fill="#474747"/>
      <path id="Path_634" data-name="Path 634" d="M11.923,5.56C16.576,3.166,26.5,0,42.785,0s31.939,3.893,34.291,5.56S88.344,17.57,88.344,17.57a165.206,165.206,0,0,1-41.693,5.807C24.565,23.377,0,17.57,0,17.57S7.27,7.955,11.923,5.56Z" transform="translate(0 25.296)" fill="#747172"/>
      <path id="Path_635" data-name="Path 635" d="M29.159,0c14.5,0,28.876,11.754,28.876,31.515A126.15,126.15,0,0,1,29.16,35.422,129.732,129.732,0,0,1,.032,31.515C-.8,10.626,14.659,0,29.159,0Z" transform="translate(15.415 0)" fill="#fff" opacity="0.59"/>
      <path id="Path_637" data-name="Path 637" d="M0,0A12.837,12.837,0,0,0,2.664.352,8.929,8.929,0,0,0,5.044,0s.846,10.883-.415,15.375S0,17.969,0,17.969Z" transform="translate(24.552 49.933) rotate(22)" fill="#b4b4b4"/>
      <path id="Path_638" data-name="Path 638" d="M0,18.367a12.836,12.836,0,0,1,2.664-.352,8.929,8.929,0,0,1,2.38.352S5.889,7.484,4.628,2.992,0,.4,0,.4Z" transform="matrix(-0.927, 0.375, -0.375, -0.927, 72.358, 66.963)" fill="#b4b4b4"/>
      <path id="Path_639" data-name="Path 639" d="M.744,18.547A12.836,12.836,0,0,1,3.407,18.2a8.929,8.929,0,0,1,2.38.352S6.633,7.664,5.372,3.172,1.6-.758.447,3.086.744,18.547.744,18.547Z" transform="matrix(-1, -0.017, 0.017, -1, 46.997, 72.32)" fill="#b4b4b4"/>
      <path id="Path_640" data-name="Path 640" d="M2.571,0S21.844,5.328,40.759,5.328,78.479.517,78.479.517l2.066,2.334s-20.872,5.6-39.786,5.6S0,2.811,0,2.811.528,2.2,1.174,1.5,2.571,0,2.571,0Z" transform="translate(3.763 35.47)" fill="#9f9f9f"/>
      <path id="Path_641" data-name="Path 641" d="M.889,0C2.978,0,5.745,6.856,5.745,14.864S2.978,29,.889,29s.16-6.186.16-14.2S-1.2,0,.889,0Z" transform="translate(54.712 5.181) rotate(-30)" fill="#fff" opacity="0.33"/>
      <ellipse id="Ellipse_129" data-name="Ellipse 129" cx="1.734" cy="1.576" rx="1.734" ry="1.576" transform="translate(49.177 2.794)" fill="#fff" opacity="0.31"/>
    </g>
    <g id="Group_59" data-name="Group 59" transform="translate(340 51.902)">
      <rect id="Rectangle_552" data-name="Rectangle 552" width="41" height="29" rx="11" transform="translate(0 21.363)" fill="#746d6d"/>
      <path id="Path_1169" data-name="Path 1169" d="M13.121,0C5.874,0,0,5.242,0,11.709V25.663H5.615s-.241-7.739,0-13.954c.1-5.793,6.469-6.482,7.506-6.479s6.809,1.183,7.055,6.479c.235,5.049,0,14.235,0,14.235l6.065-.281V11.709C26.242,5.242,20.367,0,13.121,0Z" transform="translate(7.276 0)" fill="#746d6d"/>
      <g id="Group_46" data-name="Group 46" transform="translate(17 25.363)">
        <ellipse id="Ellipse_247" data-name="Ellipse 247" cx="3.5" cy="3.5" rx="3.5" ry="3.5" transform="translate(0 0)" fill="#d8d7d7"/>
        <path id="Path_1172" data-name="Path 1172" d="M4.709,0H1.178L0,13H5.924Z" transform="translate(0.711 5.564)" fill="#d8d7d7"/>
      </g>
    </g>
  </g>
</svg>
