<svg xmlns="http://www.w3.org/2000/svg" width="755.407" height="115.995" viewBox="0 0 755.407 115.995">
  <g id="Lock_Science_Left" transform="translate(-10.289 -6.27)">
    <path id="Path_1203" data-name="Path 1203" d="M43.5,0h654a43.5,43.5,0,0,1,0,87H43.5a43.5,43.5,0,0,1,0-87Z" transform="translate(24.696 35.265)" fill="#746d6d"/>
    <path id="Path_763" data-name="Path 763" d="M33.129,0H685.991a33.129,33.129,0,0,1,0,66.258H33.129A33.129,33.129,0,0,1,33.129,0Z" transform="translate(35.717 45.405)" fill="#d8d7d7"/>
    <g id="Spaceship" transform="matrix(-0.914, 0.407, -0.407, -0.914, 110.121, 66.068)">
      <path id="Path_636" data-name="Path 636" d="M0,18.061H81.943S62.481,0,42.7,0,0,18.061,0,18.061Z" transform="translate(3.434 12.14)" fill="#474747"/>
      <path id="Path_634" data-name="Path 634" d="M11.923,17.817c4.653,2.394,14.574,5.56,30.862,5.56s31.939-3.893,34.291-5.56S88.344,5.807,88.344,5.807A165.206,165.206,0,0,0,46.651,0C24.565,0,0,5.807,0,5.807S7.27,15.422,11.923,17.817Z" transform="translate(0 23.648)" fill="#747172"/>
      <path id="Path_635" data-name="Path 635" d="M29.159,35.422c14.5,0,28.876-11.754,28.876-31.515A126.15,126.15,0,0,0,29.16,0,129.732,129.732,0,0,0,.032,3.907C-.8,24.8,14.659,35.422,29.159,35.422Z" transform="translate(15.415 36.898)" fill="#fff" opacity="0.59"/>
      <path id="Path_637" data-name="Path 637" d="M0,18.367a12.837,12.837,0,0,1,2.664-.352,8.929,8.929,0,0,1,2.38.352S5.889,7.484,4.628,2.992,0,.4,0,.4Z" transform="translate(17.671 5.358) rotate(-22)" fill="#b4b4b4"/>
      <path id="Path_638" data-name="Path 638" d="M0,0A12.836,12.836,0,0,0,2.664.352,8.929,8.929,0,0,0,5.044,0s.846,10.883-.415,15.375S0,17.969,0,17.969Z" transform="translate(65.477 22.388) rotate(-158)" fill="#b4b4b4"/>
      <path id="Path_639" data-name="Path 639" d="M.744,0A12.836,12.836,0,0,0,3.407.352,8.929,8.929,0,0,0,5.788,0s.846,10.883-.415,15.375S1.6,19.305.447,15.461.744,0,.744,0Z" transform="matrix(-1, 0.017, -0.017, -1, 47.321, 18.544)" fill="#b4b4b4"/>
      <path id="Path_640" data-name="Path 640" d="M2.571,8.45S21.844,3.122,40.759,3.122s37.72,4.811,37.72,4.811L80.545,5.6S59.673,0,40.759,0,0,5.639,0,5.639s.528.612,1.174,1.312S2.571,8.45,2.571,8.45Z" transform="translate(3.763 28.401)" fill="#9f9f9f"/>
      <path id="Path_641" data-name="Path 641" d="M.889,29c2.089,0,4.856-6.856,4.856-14.864S2.978,0,.889,0s.16,6.186.16,14.2S-1.2,29,.889,29Z" transform="translate(69.213 42.022) rotate(30)" fill="#fff" opacity="0.33"/>
      <ellipse id="Ellipse_129" data-name="Ellipse 129" cx="1.734" cy="1.576" rx="1.734" ry="1.576" transform="translate(49.177 66.374)" fill="#fff" opacity="0.31"/>
    </g>
    <g id="Group_59" data-name="Group 59" transform="translate(-639.842 -215.791)">
      <rect id="Rectangle_552" data-name="Rectangle 552" width="41" height="29" rx="11" transform="translate(1024.537 289.055)" fill="#746d6d"/>
      <path id="Path_1169" data-name="Path 1169" d="M13.121,0c7.246,0,13.121,5.242,13.121,11.709V25.663H20.627s.241-7.739,0-13.954c-.1-5.793-6.469-6.482-7.506-6.479S6.312,6.412,6.065,11.709c-.235,5.049,0,14.235,0,14.235L0,25.663V11.709C0,5.242,5.874,0,13.121,0Z" transform="translate(1032.019 267.692)" fill="#746d6d"/>
      <g id="Group_46" data-name="Group 46" transform="translate(1039.537 291.998)">
        <circle id="Ellipse_247" data-name="Ellipse 247" cx="3.5" cy="3.5" r="3.5" transform="translate(2 1.057)" fill="#d8d7d7"/>
        <path id="Path_1172" data-name="Path 1172" d="M1.215,0H4.746L5.924,13H0Z" transform="translate(2.365 6.621)" fill="#d8d7d7"/>
      </g>
    </g>
  </g>
</svg>
